<svg width="500" height="500" viewBox="0 0 500 500" xmlns="http://www.w3.org/2000/svg">
  <defs>
    <filter id="shadow" x="-5%" y="-5%" width="110%" height="110%">
      <feGaussianBlur in="SourceAlpha" stdDeviation="1.5"/>
      <feOffset dx="0" dy="2" result="offsetblur"/>
      <feComponentTransfer><feFuncA type="linear" slope="0.5"/></feComponentTransfer>
      <feMerge><feMergeNode/><feMergeNode in="SourceGraphic"/></feMerge>
    </filter>
  </defs>
  <path d="M 120 100 Q 250 30 380 100 L 380 120 L 120 120 Z" fill="#2C3E50" stroke="#1A252F" stroke-width="1.5"/>
  <rect x="100" y="115" width="300" height="25" fill="#34495E" stroke="#1A252F" stroke-width="1.5"/>
  <line x1="100" y1="130" x2="400" y2="130" stroke="#1A252F" stroke-width="0.8"/>
  <g fill="#34495E" stroke="#1A252F" stroke-width="1">
    <rect x="100" y="140" width="45" height="260"/>
    <line x1="110" y1="150" x2="110" y2="390" stroke="#2C3E50" stroke-width="1"/>
    <line x1="122" y1="150" x2="122" y2="390" stroke="#2C3E50" stroke-width="1"/>
    <line x1="135" y1="150" x2="135" y2="390" stroke="#2C3E50" stroke-width="1"/>
    <rect x="95" y="135" width="55" height="10" fill="#1A252F"/>
    <rect x="95" y="400" width="55" height="15" fill="#1A252F"/>
    <rect x="355" y="140" width="45" height="260"/>
    <line x1="365" y1="150" x2="365" y2="390" stroke="#2C3E50" stroke-width="1"/>
    <line x1="377" y1="150" x2="377" y2="390" stroke="#2C3E50" stroke-width="1"/>
    <line x1="390" y1="150" x2="390" y2="390" stroke="#2C3E50" stroke-width="1"/>
    <rect x="350" y="135" width="55" height="10" fill="#1A252F"/>
    <rect x="350" y="400" width="55" height="15" fill="#1A252F"/>
  </g>
  <rect x="145" y="140" width="210" height="260" fill="#1C2833" stroke="#1A252F" stroke-width="1.5"/>
  <rect x="155" y="150" width="190" height="240" fill="none" stroke="#2C3E50" stroke-width="1" opacity="0.4"/>
    <line x1="250" y1="150" x2="250" y2="390" stroke="#2C3E50" stroke-width="1.5"/>  
  <text x="250" y="230" text-anchor="middle" font-family="'Consolas', serif" font-size="20" font-weight="bold" fill="#FFFFFF" letter-spacing="1" font-style="none" filter="url(#shadow)">
    Project
  </text>
  <text x="250" y="270" text-anchor="middle" font-family="'Yu Mincho Demibold', serif" font-size="30" font-weight="bold" fill="#FFFFFF" letter-spacing="1" font-style="none" filter="url(#shadow)">
    AMEREISTR
  </text>
  <text x="250" y="398" text-anchor="middle" font-family="Verdana, sans-serif" font-size="8" fill="#95A5A6" letter-spacing="0.5">
    Developed By AkiACG Community
  </text>
</svg>
